# xmcd CD database file
#
# Track frame offsets:
#	150
#	12542
#	23670
#	35620
#	53192
#	65900
#	80058
#	90652
#	103870
#	121447
#
# Disc length: 1890 seconds
#
# Revision: 7
# Processed by: cddbd v1.5.2PL0 Copyright (c) Steve Scherf et al.
# Submitted via: CDex 1.70beta2
#
DISCID=8907600a
DTITLE=ASIAN KUNG-FU GENERATION - サーフ ブンガク カマクラ
DYEAR=2008
DGENRE=Rock
TTITLE0=藤沢ルーザー
TTITLE1=鵠沼サーフ
TTITLE2=江ノ島エスカー
TTITLE3=腰越クライベイビー
TTITLE4=七里ヶ浜スカイウォーク
TTITLE5=稲村ヶ崎ジェーン
TTITLE6=極楽寺ハートブレイク
TTITLE7=長谷サンズ
TTITLE8=由比ヶ浜カイト
TTITLE9=鎌倉グッドバイ
EXTD=YEAR: 2008
EXTT0=
EXTT1=
EXTT2=
EXTT3=
EXTT4=
EXTT5=
EXTT6=
EXTT7=
EXTT8=
EXTT9=
PLAYORDER=
